<?xml version="1.0" ?><svg enable-background="new 0 0 32 32" version="1.1" viewBox="0 0 32 32" xml:space="preserve" xmlns="http://www.w3.org/2000/svg" xmlns:xlink="http://www.w3.org/1999/xlink"><g id="Outline_Color"><g><g><g><path d="M4,31.5c-1.93,0-3.5-1.57-3.5-3.5V4c0-1.93,1.57-3.5,3.5-3.5h24c1.93,0,3.5,1.57,3.5,3.5v24      c0,1.93-1.57,3.5-3.5,3.5H4z" fill="#FFFFFF"/><path d="M28,1c1.654,0,3,1.346,3,3v24c0,1.654-1.346,3-3,3H4c-1.654,0-3-1.346-3-3V4c0-1.654,1.346-3,3-3H28 M28,0H4      C1.8,0,0,1.8,0,4v24c0,2.2,1.8,4,4,4h24c2.2,0,4-1.8,4-4V4C32,1.8,30.2,0,28,0L28,0z"/></g><path d="M27.438,29.437H4.562c-1.1,0-2-0.9-2-2V4.562c0-1.1,0.9-2,2-2h22.875c1.1,0,2,0.9,2,2v22.875     C29.438,28.537,28.537,29.437,27.438,29.437z"/></g><path d="M22.057,7.924H9.943c-1.14,0-2.019,0.879-2.019,2.019v12.113c0,1.14,0.879,2.019,2.019,2.019h12.113    c1.14,0,2.019-0.879,2.019-2.019V9.943C24.076,8.803,23.196,7.924,22.057,7.924z M16.012,12.827c1.791,0,3.243,1.407,3.243,3.142    c0,1.735-1.452,3.142-3.243,3.142c-1.79,0-3.242-1.408-3.242-3.142C12.77,14.234,14.222,12.827,16.012,12.827z M22.057,21.552    c0,0.354-0.151,0.505-0.505,0.505H10.448c-0.353,0-0.505-0.151-0.505-0.505v-7.066l1.258,0.274    c-0.135,0.439-0.208,0.903-0.208,1.385c0,2.684,2.248,4.863,5.018,4.863c2.772,0,5.019-2.178,5.019-4.863    c0-0.482-0.073-0.946-0.208-1.385l1.234-0.274V21.552z M22.057,12.467c0,0.279-0.226,0.505-0.505,0.505h-2.019    c-0.279,0-0.505-0.226-0.505-0.505v-2.019c0-0.279,0.226-0.505,0.505-0.505h2.019c0.279,0,0.505,0.226,0.505,0.505V12.467z" fill="#FFFFFF"/></g></g></svg>